<svg xmlns="http://www.w3.org/2000/svg" width="195.132" height="59.077" viewBox="0 0 195.132 59.077"><g id="Grupo_71" data-name="Grupo 71" transform="translate(568.079 -1481.5)"><path id="Trazado_2" data-name="Trazado 2" d="M101.644,131.924c-13.546,0-23.212-9.255-23.212-22.134S88.1,87.656,101.644,87.656c13.51,0,23.142,9.221,23.142,22.135s-9.631,22.134-23.142,22.134m0-10.8c6.414,0,11.056-4.737,11.056-11.333s-4.641-11.331-11.056-11.331-11.126,4.772-11.126,11.331,4.711,11.332,11.126,11.332Z" transform="translate(-646.511 1394.885)" fill="#fff"></path><path id="Trazado_3" data-name="Trazado 3" d="M156.826,99.357V109.6h-4.348c-3.963,0-5.624,1.739-5.624,5.885v16.53h-11.2V99.512h7.5l1.748,3.608c2.292-2.652,5.085-3.763,8.953-3.763Z" transform="translate(-652.183 1393.726)" fill="#fff"></path><path id="Trazado_4" data-name="Trazado 4" d="M197.65,99.384v32.506h-8.655l-.96-2.3a15.392,15.392,0,0,1-9.807,3.4c-9.94,0-17.046-7.252-17.046-17.355,0-10.066,7.105-17.232,17.046-17.232a15.416,15.416,0,0,1,9.932,3.495l1.146-2.514ZM187,115.662a7.278,7.278,0,1,0-7.277,7.415A7.142,7.142,0,0,0,187,115.662" transform="translate(-654.713 1393.82)" fill="#fff"></path><rect id="Rect&#xE1;ngulo_2" data-name="Rect&#xE1;ngulo 2" width="11.196" height="44.245" transform="translate(-450.008 1481.5)" fill="#fff"></rect><path id="Trazado_5" data-name="Trazado 5" d="M251.3,121.184v9.807h-7.7c-7.188,0-11.558-4.394-11.558-11.619V107.107H226.09V104.49l14.564-15.51h2.3v9.5h8.166v8.623h-7.885v10.345A3.449,3.449,0,0,0,247,121.184Z" transform="translate(-661.147 1394.754)" fill="#fff"></path><path id="Trazado_6" data-name="Trazado 6" d="M280.884,117.908v4.042l0,.077a2.527,2.527,0,0,1-.694,1.679c-.935,1.034-1.76,1.577-4.243,1.614a4.682,4.682,0,0,1-3.612-1.231,4.976,4.976,0,0,1-1.119-3.4v-.012l0-2.772H260.477v7.076a9.123,9.123,0,0,0,2.556,6.081c2.022,2.058,5.03,3.1,8.934,3.1,5.419,0,8.313-1.148,9.862-2.385v.526a6.6,6.6,0,0,1-3.62,6.035,9.786,9.786,0,0,1-5.9,1.195,15.343,15.343,0,0,1-7.34-2.453l-.908-.721-3.767,8.792.506.424c.154.126,3.84,3.11,13.061,3.11a21.413,21.413,0,0,0,12.321-3.818c3.44-2.488,5.412-5.868,5.412-9.269v-17.7Z" transform="translate(-664.537 1391.887)" fill="#ff4b4c"></path><path id="Trazado_7" data-name="Trazado 7" d="M271.228,107.914l-.009-8.43H260.5v8.43Z" transform="translate(-664.557 1393.713)" fill="#ff4b4c"></path><path id="Trazado_8" data-name="Trazado 8" d="M80.659,146.175a3.127,3.127,0,1,1,3.122,2.952,2.952,2.952,0,0,1-3.122-2.952m4.907,0A1.786,1.786,0,1,0,83.781,148a1.741,1.741,0,0,0,1.786-1.828" transform="translate(-646.732 1389.377)" fill="#fff"></path><path id="Trazado_9" data-name="Trazado 9" d="M91.43,143.334h2.592a2.867,2.867,0,1,1,0,5.707H91.43Zm2.527,4.622a1.772,1.772,0,1,0,0-3.538H92.751v3.538Z" transform="translate(-647.799 1389.367)" fill="#fff"></path><path id="Trazado_10" data-name="Trazado 10" d="M101.242,146.175a3.127,3.127,0,1,1,3.122,2.952,2.952,2.952,0,0,1-3.122-2.952m4.908,0A1.786,1.786,0,1,0,104.364,148a1.742,1.742,0,0,0,1.786-1.828" transform="translate(-648.772 1389.377)" fill="#fff"></path><path id="Trazado_11" data-name="Trazado 11" d="M117.247,143.333v5.707h-1.086l-2.843-3.464v3.464h-1.305v-5.707h1.094l2.835,3.465v-3.465Z" transform="translate(-649.839 1389.367)" fill="#fff"></path><path id="Trazado_12" data-name="Trazado 12" d="M123.171,144.409h-1.826v-1.077h4.973v1.077h-1.826v4.631h-1.321Z" transform="translate(-650.764 1389.367)" fill="#fff"></path><path id="Trazado_13" data-name="Trazado 13" d="M129.9,146.175a3.126,3.126,0,1,1,3.121,2.952,2.952,2.952,0,0,1-3.121-2.952m4.907,0A1.786,1.786,0,1,0,133.021,148a1.742,1.742,0,0,0,1.786-1.828" transform="translate(-651.612 1389.377)" fill="#fff"></path><path id="Trazado_14" data-name="Trazado 14" d="M140.67,143.333h1.319v4.631h2.864v1.077H140.67Z" transform="translate(-652.68 1389.367)" fill="#fff"></path><path id="Trazado_15" data-name="Trazado 15" d="M148.363,146.175a3.128,3.128,0,1,1,3.122,2.952,2.952,2.952,0,0,1-3.122-2.952m4.908,0A1.786,1.786,0,1,0,151.485,148a1.741,1.741,0,0,0,1.786-1.828" transform="translate(-653.443 1389.377)" fill="#fff"></path><path id="Trazado_16" data-name="Trazado 16" d="M162.95,146.085h1.206V148.4a3.946,3.946,0,0,1-2.306.724,2.955,2.955,0,1,1,.023-5.9,3.047,3.047,0,0,1,2.391.985l-.849.785a1.925,1.925,0,0,0-1.476-.645,1.826,1.826,0,1,0-.015,3.652,2.106,2.106,0,0,0,1.026-.245Z" transform="translate(-654.471 1389.377)" fill="#fff"></path><path id="Trazado_17" data-name="Trazado 17" d="M169.858,141.514h1.368l-1.476,1.174h-1Zm-1.021,1.639h1.321v5.707h-1.321Z" transform="translate(-655.464 1389.547)" fill="#fff"></path><path id="Trazado_18" data-name="Trazado 18" d="M178.225,147.817h-2.65l-.5,1.223h-1.355l2.544-5.708h1.3l2.554,5.708h-1.388Zm-.416-1-.905-2.185-.9,2.185Z" transform="translate(-655.956 1389.367)" fill="#fff"></path><path id="Trazado_19" data-name="Trazado 19" d="M194.46,145.4c0,1.271-.955,2.063-2.48,2.063h-1.149v1.573h-1.32v-5.707h2.468c1.525,0,2.48.791,2.48,2.071m-1.337,0c0-.628-.408-.994-1.213-.994h-1.078v1.981h1.078c.805,0,1.213-.368,1.213-.987" transform="translate(-657.521 1389.367)" fill="#fff"></path><path id="Trazado_20" data-name="Trazado 20" d="M202.138,147.817h-2.65l-.5,1.223h-1.355l2.544-5.708h1.3l2.552,5.708h-1.386Zm-.415-1-.906-2.185-.9,2.185Z" transform="translate(-658.326 1389.367)" fill="#fff"></path><path id="Trazado_21" data-name="Trazado 21" d="M211.765,149.04l-1.1-1.59h-1.217v1.59h-1.321v-5.707H210.6c1.525,0,2.478.791,2.478,2.071a1.858,1.858,0,0,1-1.173,1.8l1.279,1.834Zm-1.239-4.631h-1.077V146.4h1.077c.807,0,1.213-.376,1.213-.995s-.406-.995-1.213-.995" transform="translate(-659.366 1389.367)" fill="#fff"></path><path id="Trazado_22" data-name="Trazado 22" d="M221.192,147.817h-2.649l-.505,1.223h-1.355l2.544-5.708h1.3l2.551,5.708H221.7Zm-.416-1-.905-2.185-.9,2.185Z" transform="translate(-660.214 1389.367)" fill="#fff"></path><path id="Trazado_23" data-name="Trazado 23" d="M233.589,144.409h-1.826v-1.077h4.973v1.077H234.91v4.631h-1.321Z" transform="translate(-661.709 1389.367)" fill="#fff"></path><rect id="Rect&#xE1;ngulo_3" data-name="Rect&#xE1;ngulo 3" width="1.319" height="5.707" transform="translate(-421.799 1532.7)" fill="#fff"></rect></g></svg>