<svg xmlns="http://www.w3.org/2000/svg" width="216.602" height="65.577" viewBox="0 0 216.602 65.577"><g id="Grupo_70" data-name="Grupo 70" transform="translate(568.079 -1481.5)"><path id="Trazado_2" data-name="Trazado 2" d="M104.2,136.795c-15.036,0-25.766-10.273-25.766-24.569s10.73-24.57,25.766-24.57c15,0,25.688,10.236,25.688,24.57s-10.691,24.569-25.688,24.569m0-11.989c7.12,0,12.272-5.258,12.272-12.58S111.318,99.648,104.2,99.648s-12.35,5.3-12.35,12.578,5.229,12.579,12.35,12.579Z" transform="translate(-646.511 1395)" fill="#3a1f5c"></path><path id="Trazado_3" data-name="Trazado 3" d="M159.155,99.357V110.73h-4.826c-4.4,0-6.243,1.93-6.243,6.533v18.349H135.658V99.529h8.326l1.94,4c2.544-2.944,5.644-4.177,9.938-4.177Z" transform="translate(-646.511 1395)" fill="#3a1f5c"></path><path id="Trazado_4" data-name="Trazado 4" d="M201.662,99.492v36.083h-9.607l-1.066-2.551A17.086,17.086,0,0,1,180.1,136.8c-11.034,0-18.921-8.05-18.921-19.265,0-11.174,7.887-19.128,18.921-19.128a17.112,17.112,0,0,1,11.025,3.879l1.272-2.791Zm-11.82,18.069a8.079,8.079,0,1,0-8.078,8.231,7.928,7.928,0,0,0,8.078-8.231" transform="translate(-646.511 1395)" fill="#3a1f5c"></path><rect id="Rect&#xE1;ngulo_2" data-name="Rect&#xE1;ngulo 2" width="12.428" height="49.113" transform="translate(-437.017 1481.5)" fill="#3a1f5c"></rect><path id="Trazado_5" data-name="Trazado 5" d="M254.073,124.727v10.886h-8.551c-7.979,0-12.83-4.877-12.83-12.9V109.1h-6.6V106.2L242.256,88.98h2.552V99.53h9.065V109.1H245.12v11.483a3.828,3.828,0,0,0,4.182,4.142Z" transform="translate(-646.511 1395)" fill="#3a1f5c"></path><path id="Trazado_6" data-name="Trazado 6" d="M283.15,117.908v4.487l0,.086a2.8,2.8,0,0,1-.77,1.864c-1.038,1.148-1.954,1.75-4.71,1.792a5.2,5.2,0,0,1-4.009-1.366A5.523,5.523,0,0,1,272.422,121v-.013l0-3.077H260.5v7.854a10.127,10.127,0,0,0,2.837,6.75c2.245,2.284,5.583,3.444,9.917,3.444,6.015,0,9.228-1.274,10.947-2.647v.584a7.328,7.328,0,0,1-4.018,6.7,10.863,10.863,0,0,1-6.554,1.326,17.031,17.031,0,0,1-8.148-2.723l-1.008-.8-4.182,9.759.562.471c.171.14,4.262,3.452,14.5,3.452a23.769,23.769,0,0,0,13.677-4.238c3.818-2.762,6.008-6.514,6.008-10.289V117.908Z" transform="translate(-646.511 1395)" fill="#ff4b4c"></path><path id="Trazado_7" data-name="Trazado 7" d="M272.409,108.842l-.01-9.358H260.5v9.358Z" transform="translate(-646.511 1395)" fill="#ff4b4c"></path><path id="Trazado_70" data-name="Trazado 70" d="M272.409,108.842l-.01-9.358H260.5v9.358Z" transform="translate(-623.886 1395)" fill="#ff4b4c"></path><path id="Trazado_8" data-name="Trazado 8" d="M80.659,146.5a3.471,3.471,0,1,1,3.465,3.277,3.277,3.277,0,0,1-3.465-3.277m5.447,0a1.982,1.982,0,1,0-1.982,2.029,1.932,1.932,0,0,0,1.982-2.029" transform="translate(-646.511 1395)" fill="#3a1f5c"></path><path id="Trazado_9" data-name="Trazado 9" d="M91.43,143.334h2.877c2.072,0,3.492,1.248,3.492,3.166s-1.42,3.169-3.492,3.169H91.43Zm2.805,5.13a1.967,1.967,0,1,0,0-3.927H92.9v3.927Z" transform="translate(-646.511 1395)" fill="#3a1f5c"></path><path id="Trazado_10" data-name="Trazado 10" d="M101.242,146.5a3.471,3.471,0,1,1,3.465,3.277,3.277,3.277,0,0,1-3.465-3.277m5.448,0a1.983,1.983,0,1,0-1.983,2.029,1.934,1.934,0,0,0,1.983-2.029" transform="translate(-646.511 1395)" fill="#3a1f5c"></path><path id="Trazado_11" data-name="Trazado 11" d="M117.823,143.333v6.335h-1.205l-3.156-3.845v3.845h-1.449v-6.335h1.214l3.147,3.846v-3.846Z" transform="translate(-646.511 1395)" fill="#3a1f5c"></path><path id="Trazado_12" data-name="Trazado 12" d="M123.371,144.528h-2.027v-1.195h5.52v1.195h-2.027v5.14h-1.466Z" transform="translate(-646.511 1395)" fill="#3a1f5c"></path><path id="Trazado_13" data-name="Trazado 13" d="M129.9,146.5a3.47,3.47,0,1,1,3.464,3.277A3.276,3.276,0,0,1,129.9,146.5m5.447,0a1.983,1.983,0,1,0-1.983,2.029,1.934,1.934,0,0,0,1.983-2.029" transform="translate(-646.511 1395)" fill="#3a1f5c"></path><path id="Trazado_14" data-name="Trazado 14" d="M140.67,143.333h1.464v5.14h3.179v1.2H140.67Z" transform="translate(-646.511 1395)" fill="#3a1f5c"></path><path id="Trazado_15" data-name="Trazado 15" d="M148.363,146.5a3.472,3.472,0,1,1,3.465,3.277,3.277,3.277,0,0,1-3.465-3.277m5.448,0a1.982,1.982,0,1,0-1.983,2.029,1.933,1.933,0,0,0,1.983-2.029" transform="translate(-646.511 1395)" fill="#3a1f5c"></path><path id="Trazado_16" data-name="Trazado 16" d="M163.414,146.4h1.339v2.571a4.38,4.38,0,0,1-2.56.8,3.281,3.281,0,1,1,.025-6.55,3.382,3.382,0,0,1,2.654,1.093l-.942.871a2.137,2.137,0,0,0-1.638-.716,2.027,2.027,0,1,0-.017,4.054,2.338,2.338,0,0,0,1.139-.272Z" transform="translate(-646.511 1395)" fill="#3a1f5c"></path><path id="Trazado_17" data-name="Trazado 17" d="M169.979,141.514H171.5l-1.638,1.3h-1.1Zm-1.133,1.819h1.466v6.335h-1.466Z" transform="translate(-646.511 1395)" fill="#3a1f5c"></path><path id="Trazado_18" data-name="Trazado 18" d="M178.721,148.31h-2.942l-.559,1.358h-1.5l2.824-6.336h1.447l2.835,6.336h-1.541Zm-.462-1.113-1.005-2.425-1,2.425Z" transform="translate(-646.511 1395)" fill="#3a1f5c"></path><path id="Trazado_19" data-name="Trazado 19" d="M195,145.631c0,1.411-1.06,2.29-2.753,2.29h-1.275v1.746h-1.465v-6.335h2.74c1.693,0,2.753.878,2.753,2.3m-1.484,0c0-.7-.453-1.1-1.347-1.1h-1.2v2.2h1.2c.894,0,1.347-.408,1.347-1.1" transform="translate(-646.511 1395)" fill="#3a1f5c"></path><path id="Trazado_20" data-name="Trazado 20" d="M202.634,148.31h-2.942l-.559,1.358h-1.5l2.824-6.336H201.9l2.833,6.336h-1.539Zm-.461-1.113-1.006-2.425-1,2.425Z" transform="translate(-646.511 1395)" fill="#3a1f5c"></path><path id="Trazado_21" data-name="Trazado 21" d="M212.165,149.668l-1.22-1.765h-1.351v1.765h-1.466v-6.335h2.743c1.693,0,2.751.878,2.751,2.3a2.063,2.063,0,0,1-1.3,2l1.42,2.036Zm-1.375-5.14h-1.2v2.208h1.2c.9,0,1.347-.417,1.347-1.1s-.451-1.1-1.347-1.1" transform="translate(-646.511 1395)" fill="#3a1f5c"></path><path id="Trazado_22" data-name="Trazado 22" d="M221.688,148.31h-2.94l-.561,1.358h-1.5l2.824-6.336h1.448l2.832,6.336h-1.539Zm-.462-1.113-1.005-2.425-1,2.425Z" transform="translate(-646.511 1395)" fill="#3a1f5c"></path><path id="Trazado_23" data-name="Trazado 23" d="M233.79,144.528h-2.027v-1.195h5.52v1.195h-2.027v5.14H233.79Z" transform="translate(-646.511 1395)" fill="#3a1f5c"></path><rect id="Rect&#xE1;ngulo_3" data-name="Rect&#xE1;ngulo 3" width="1.464" height="6.335" transform="translate(-405.705 1538.333)" fill="#3a1f5c"></rect></g></svg>